<mxfile host="app.diagrams.net" agent="Mozilla/5.0 (Windows NT 10.0; Win64; x64) AppleWebKit/537.36 (KHTML, like Gecko) Chrome/131.0.0.0 Safari/537.36 Edg/131.0.0.0" version="25.0.1">
  <diagram name="Page-1" id="xJG3Pb36KWoJWPWaqgMg">
    <mxGraphModel dx="1346" dy="1369" grid="1" gridSize="10" guides="1" tooltips="1" connect="1" arrows="1" fold="1" page="1" pageScale="1" pageWidth="850" pageHeight="1100" math="0" shadow="0">
      <root>
        <mxCell id="0" />
        <mxCell id="1" parent="0" />
        <mxCell id="7Z5tbQ74TCYRkC9muY5h-1" value="" style="edgeStyle=orthogonalEdgeStyle;rounded=0;orthogonalLoop=1;jettySize=auto;html=1;" edge="1" parent="1" source="7Z5tbQ74TCYRkC9muY5h-2">
          <mxGeometry relative="1" as="geometry">
            <mxPoint x="-474.9655172413793" y="-880" as="targetPoint" />
          </mxGeometry>
        </mxCell>
        <mxCell id="7Z5tbQ74TCYRkC9muY5h-2" value="&lt;font data-font-src=&quot;https://fonts.googleapis.com/css?family=Sarabun&quot; face=&quot;Sarabun&quot;&gt;Start&lt;/font&gt;" style="ellipse;whiteSpace=wrap;html=1;" vertex="1" parent="1">
          <mxGeometry x="-540.0000000000001" y="-940" width="130" height="30" as="geometry" />
        </mxCell>
        <mxCell id="7Z5tbQ74TCYRkC9muY5h-3" value="" style="edgeStyle=orthogonalEdgeStyle;rounded=0;orthogonalLoop=1;jettySize=auto;html=1;" edge="1" parent="1" target="7Z5tbQ74TCYRkC9muY5h-5">
          <mxGeometry relative="1" as="geometry">
            <mxPoint x="-473.9655172413793" y="-840" as="sourcePoint" />
          </mxGeometry>
        </mxCell>
        <mxCell id="7Z5tbQ74TCYRkC9muY5h-4" value="" style="edgeStyle=orthogonalEdgeStyle;rounded=0;orthogonalLoop=1;jettySize=auto;html=1;entryX=0.5;entryY=0;entryDx=0;entryDy=0;" edge="1" parent="1" source="7Z5tbQ74TCYRkC9muY5h-5" target="7Z5tbQ74TCYRkC9muY5h-20">
          <mxGeometry relative="1" as="geometry">
            <mxPoint x="-474" y="-730" as="targetPoint" />
          </mxGeometry>
        </mxCell>
        <mxCell id="7Z5tbQ74TCYRkC9muY5h-5" value="กำหนดตัวแปร n" style="rounded=0;whiteSpace=wrap;html=1;" vertex="1" parent="1">
          <mxGeometry x="-539.0000000000001" y="-810" width="130" height="40" as="geometry" />
        </mxCell>
        <mxCell id="7Z5tbQ74TCYRkC9muY5h-6" value="" style="edgeStyle=orthogonalEdgeStyle;rounded=0;orthogonalLoop=1;jettySize=auto;html=1;" edge="1" parent="1" source="7Z5tbQ74TCYRkC9muY5h-7" target="7Z5tbQ74TCYRkC9muY5h-12">
          <mxGeometry relative="1" as="geometry" />
        </mxCell>
        <mxCell id="7Z5tbQ74TCYRkC9muY5h-7" value="กรอกตัวแปร input" style="rounded=0;whiteSpace=wrap;html=1;shape=parallelogram;perimeter=parallelogramPerimeter;fixedSize=1;" vertex="1" parent="1">
          <mxGeometry x="-539.0000000000001" y="-610" width="130" height="40" as="geometry" />
        </mxCell>
        <mxCell id="7Z5tbQ74TCYRkC9muY5h-8" value="" style="edgeStyle=orthogonalEdgeStyle;rounded=0;orthogonalLoop=1;jettySize=auto;html=1;" edge="1" parent="1" source="7Z5tbQ74TCYRkC9muY5h-9" target="7Z5tbQ74TCYRkC9muY5h-7">
          <mxGeometry relative="1" as="geometry" />
        </mxCell>
        <mxCell id="7Z5tbQ74TCYRkC9muY5h-9" value="" style="ellipse;whiteSpace=wrap;html=1;aspect=fixed;" vertex="1" parent="1">
          <mxGeometry x="-484" y="-670" width="20" height="20" as="geometry" />
        </mxCell>
        <mxCell id="7Z5tbQ74TCYRkC9muY5h-10" style="edgeStyle=orthogonalEdgeStyle;rounded=0;orthogonalLoop=1;jettySize=auto;html=1;entryX=0;entryY=0.5;entryDx=0;entryDy=0;" edge="1" parent="1" source="7Z5tbQ74TCYRkC9muY5h-12" target="7Z5tbQ74TCYRkC9muY5h-9">
          <mxGeometry relative="1" as="geometry">
            <Array as="points">
              <mxPoint x="-599" y="-490" />
              <mxPoint x="-599" y="-660" />
            </Array>
          </mxGeometry>
        </mxCell>
        <mxCell id="7Z5tbQ74TCYRkC9muY5h-11" value="" style="edgeStyle=orthogonalEdgeStyle;rounded=0;orthogonalLoop=1;jettySize=auto;html=1;" edge="1" parent="1" source="7Z5tbQ74TCYRkC9muY5h-12" target="7Z5tbQ74TCYRkC9muY5h-24">
          <mxGeometry relative="1" as="geometry" />
        </mxCell>
        <mxCell id="7Z5tbQ74TCYRkC9muY5h-12" value="กรอก -1 หรือไม่" style="rhombus;whiteSpace=wrap;html=1;" vertex="1" parent="1">
          <mxGeometry x="-538" y="-530" width="128" height="80" as="geometry" />
        </mxCell>
        <mxCell id="7Z5tbQ74TCYRkC9muY5h-13" value="" style="edgeStyle=orthogonalEdgeStyle;rounded=0;orthogonalLoop=1;jettySize=auto;html=1;" edge="1" parent="1" target="7Z5tbQ74TCYRkC9muY5h-22">
          <mxGeometry relative="1" as="geometry">
            <mxPoint x="-475.0000000000001" y="-370" as="sourcePoint" />
          </mxGeometry>
        </mxCell>
        <mxCell id="7Z5tbQ74TCYRkC9muY5h-14" value="" style="edgeStyle=orthogonalEdgeStyle;rounded=0;orthogonalLoop=1;jettySize=auto;html=1;" edge="1" parent="1" target="7Z5tbQ74TCYRkC9muY5h-15">
          <mxGeometry relative="1" as="geometry">
            <mxPoint x="-474" y="-210" as="sourcePoint" />
          </mxGeometry>
        </mxCell>
        <mxCell id="7Z5tbQ74TCYRkC9muY5h-15" value="&lt;font face=&quot;Sarabun&quot;&gt;END&lt;/font&gt;" style="ellipse;whiteSpace=wrap;html=1;" vertex="1" parent="1">
          <mxGeometry x="-539.0000000000001" y="-160" width="130" height="30" as="geometry" />
        </mxCell>
        <mxCell id="7Z5tbQ74TCYRkC9muY5h-16" value="F" style="text;html=1;align=center;verticalAlign=middle;resizable=0;points=[];autosize=1;strokeColor=none;fillColor=none;" vertex="1" parent="1">
          <mxGeometry x="-559" y="-520" width="30" height="30" as="geometry" />
        </mxCell>
        <mxCell id="7Z5tbQ74TCYRkC9muY5h-17" value="T" style="text;html=1;align=center;verticalAlign=middle;resizable=0;points=[];autosize=1;strokeColor=none;fillColor=none;" vertex="1" parent="1">
          <mxGeometry x="-455" y="-460" width="30" height="30" as="geometry" />
        </mxCell>
        <mxCell id="7Z5tbQ74TCYRkC9muY5h-18" value="กำหนดตัวแปร arr input1" style="rounded=0;whiteSpace=wrap;html=1;" vertex="1" parent="1">
          <mxGeometry x="-539.0000000000001" y="-880" width="130" height="40" as="geometry" />
        </mxCell>
        <mxCell id="7Z5tbQ74TCYRkC9muY5h-19" style="edgeStyle=orthogonalEdgeStyle;rounded=0;orthogonalLoop=1;jettySize=auto;html=1;entryX=0.5;entryY=0;entryDx=0;entryDy=0;" edge="1" parent="1" source="7Z5tbQ74TCYRkC9muY5h-20" target="7Z5tbQ74TCYRkC9muY5h-9">
          <mxGeometry relative="1" as="geometry" />
        </mxCell>
        <mxCell id="7Z5tbQ74TCYRkC9muY5h-20" value="กรอกจำนวนรอบ (n)" style="rounded=0;whiteSpace=wrap;html=1;shape=parallelogram;perimeter=parallelogramPerimeter;fixedSize=1;" vertex="1" parent="1">
          <mxGeometry x="-539.0000000000001" y="-740" width="130" height="40" as="geometry" />
        </mxCell>
        <mxCell id="7Z5tbQ74TCYRkC9muY5h-21" value="" style="edgeStyle=orthogonalEdgeStyle;rounded=0;orthogonalLoop=1;jettySize=auto;html=1;" edge="1" parent="1" source="7Z5tbQ74TCYRkC9muY5h-22" target="7Z5tbQ74TCYRkC9muY5h-23">
          <mxGeometry relative="1" as="geometry" />
        </mxCell>
        <mxCell id="7Z5tbQ74TCYRkC9muY5h-22" value="นับตัวซ้ำ" style="rounded=0;whiteSpace=wrap;html=1;" vertex="1" parent="1">
          <mxGeometry x="-540.0000000000001" y="-330" width="130" height="40" as="geometry" />
        </mxCell>
        <mxCell id="7Z5tbQ74TCYRkC9muY5h-23" value="ปริ้นค่าตัวซ้ำ" style="rounded=0;whiteSpace=wrap;html=1;shape=parallelogram;perimeter=parallelogramPerimeter;fixedSize=1;" vertex="1" parent="1">
          <mxGeometry x="-540.0000000000001" y="-250" width="130" height="40" as="geometry" />
        </mxCell>
        <mxCell id="7Z5tbQ74TCYRkC9muY5h-24" value="เรียกจากน้อยไปมาก" style="rounded=0;whiteSpace=wrap;html=1;" vertex="1" parent="1">
          <mxGeometry x="-540.0000000000001" y="-410" width="130" height="40" as="geometry" />
        </mxCell>
      </root>
    </mxGraphModel>
  </diagram>
</mxfile>
